<?xml version="1.0" encoding="utf-8"?>
<!-- Generator: Adobe Illustrator 16.0.0, SVG Export Plug-In . SVG Version: 6.00 Build 0)  -->
<!DOCTYPE svg PUBLIC "-//W3C//DTD SVG 1.1//EN" "http://www.w3.org/Graphics/SVG/1.1/DTD/svg11.dtd">
<svg version="1.1" id="Warstwa_1" xmlns="http://www.w3.org/2000/svg" xmlns:xlink="http://www.w3.org/1999/xlink" x="0px" y="0px"
	 width="200px" height="157px" viewBox="0 0 200 157" enable-background="new 0 0 200 157" xml:space="preserve">
<g>
	<linearGradient id="SVGID_1_" gradientUnits="userSpaceOnUse" x1="180.5342" y1="52.3203" x2="54.2725" y2="52.3203">
		<stop  offset="0" style="stop-color:#00A2CD"/>
		<stop  offset="1" style="stop-color:#29235C"/>
	</linearGradient>
	<path fill-rule="evenodd" clip-rule="evenodd" fill="url(#SVGID_1_)" d="M60.71,40.849c8.646-1.721,10.455-2.426,16.536-2.772
		c10.841-0.847,21.408,0.466,30.067,4.489c1.843,0.868,9.127,5.103,10.926,6.267c12.43,8.068,20.984,18.782,25.939,24.436
		c2.351,2.689,4.573,4.616,6.775,5.971c5.718,3.493,11.456,3.071,19.926,1.948c5.822-0.783,9.21-2.35,9.613-2.541
		c0.021,0,0.021-0.021,0.041-0.021c0,0-4.53-2.435-10.883-9.084c-5.653-5.906-11.021-11.867-18.949-20.531
		c-7.589-8.294-34.41-41.819-81.204-17.9c-7.078,3.619-11.52,7.581-15.225,11.053L60.71,40.849z"/>
	<linearGradient id="SVGID_2_" gradientUnits="userSpaceOnUse" x1="149.4531" y1="104.4341" x2="19.4653" y2="104.4341">
		<stop  offset="0" style="stop-color:#00A2CD"/>
		<stop  offset="1" style="stop-color:#29235C"/>
	</linearGradient>
	<path fill-rule="evenodd" clip-rule="evenodd" fill="url(#SVGID_2_)" d="M114.264,118.849c11.813,0,23.968-3.366,35.189-8.598
		c-4.234,4.743-9.21,9.528-19.439,15.351c-44.358,25.285-77.833-11.749-82.047-16.914c-7.432-9.106-12.577-15.207-18.252-21.112
		c-6.373-6.628-10.248-9.105-10.248-9.105s0.021,0,0.043-0.022c0.38-0.232,3.706-2.051,9.464-3.089
		c7.347-1.315,13.021-1.462,18.866,2.328c0.021,0,0.042,0.021,0.062,0.042c2.118,1.377,4.278,3.304,6.545,5.865
		c5.715,6.46,16.577,19.714,32.479,27.845C95.395,116.648,104.712,118.849,114.264,118.849z"/>
	<path fill-rule="evenodd" clip-rule="evenodd" fill="#F39200" d="M80.507,48.367c-1.588,1.016-3.153,2.181-4.721,3.558
		C61.07,64.734,48.26,77.927,48.26,77.927c-0.128-0.064-0.233-0.127-0.36-0.191c-0.021-0.021-0.043-0.042-0.064-0.042
		c-6.394-3.536-12.895-3.388-19.396-1.948c-5.273,1.144-8.554,2.542-8.935,2.711c2.202-1.97,12.345-12.112,19.247-19.565
		C50.377,53.767,66.003,48.875,80.507,48.367z"/>
	<path fill-rule="evenodd" clip-rule="evenodd" fill="#29235C" d="M116.91,118.36"/>
	<path fill-rule="evenodd" clip-rule="evenodd" fill="#1F1B37" d="M180.493,78.646c-3.39,2.096-10.546,8.809-17.533,16.39
		c-8.215,4.317-25.896,12.45-44.316,13.19c1.545-0.995,3.111-2.138,4.634-3.451c14.338-12.324,26.914-24.773,27.677-25.536
		c0.021-0.021,0.042-0.042,0.042-0.042c5.611,3.114,15.33,2.731,20.709,1.588C177.019,79.663,180.133,78.752,180.493,78.646z"/>
	<path fill-rule="evenodd" clip-rule="evenodd" fill="#1F1B37" d="M120.498,78.333c0,11.322-9.175,20.495-20.496,20.495
		s-20.494-9.172-20.494-20.495c0-11.321,9.172-20.498,20.494-20.498S120.498,67.012,120.498,78.333z"/>
	<g>
		<line fill="none" x1="60.584" y1="40.999" x2="54.273" y2="42.164"/>
	</g>
</g>
</svg>
